<svg width="233" height="91" viewBox="0 0 233 91" fill="none" xmlns="http://www.w3.org/2000/svg">
<path d="M114.455 75.7362C110.623 75.7362 107.183 74.8262 104.137 73.0062C101.091 71.1359 98.6825 68.6078 96.9136 65.4228C95.1447 62.2378 94.2361 58.6484 94.1865 54.6545V20.0745C94.1865 18.9117 94.5309 17.9764 95.2184 17.2687C95.9554 16.5609 96.8646 16.207 97.9455 16.207C99.0758 16.207 99.9851 16.5609 100.673 17.2687C101.361 17.9764 101.704 18.9117 101.704 20.0745V40.5495C103.424 38.4262 105.488 36.7578 107.896 35.5445C110.353 34.2806 113.031 33.6487 115.929 33.6487C119.517 33.6487 122.735 34.584 125.585 36.4545C128.436 38.2745 130.67 40.777 132.291 43.962C133.963 47.0965 134.798 50.6606 134.798 54.6545C134.798 58.6484 133.889 62.2378 132.071 65.4228C130.302 68.6078 127.894 71.1359 124.848 73.0062C121.801 74.8262 118.337 75.7362 114.455 75.7362ZM114.455 68.9112C116.961 68.9112 119.197 68.3045 121.163 67.0912C123.128 65.8273 124.676 64.1084 125.806 61.9345C126.985 59.7606 127.575 57.334 127.575 54.6545C127.575 51.9245 126.985 49.4978 125.806 47.3745C124.676 45.2512 123.128 43.5828 121.163 42.3695C119.197 41.1056 116.961 40.4737 114.455 40.4737C111.999 40.4737 109.763 41.1056 107.748 42.3695C105.783 43.5828 104.235 45.2512 103.105 47.3745C101.975 49.4978 101.41 51.9245 101.41 54.6545C101.41 57.334 101.975 59.7606 103.105 61.9345C104.235 64.1084 105.783 65.8273 107.748 67.0912C109.763 68.3045 111.999 68.9112 114.455 68.9112ZM161.425 75.7362C157.348 75.7362 153.711 74.8517 150.518 73.082C147.373 71.262 144.892 68.7848 143.073 65.6503C141.305 62.4653 140.42 58.8253 140.42 54.7303C140.42 50.5848 141.256 46.9448 142.925 43.8103C144.645 40.6253 147.004 38.1481 150.002 36.3787C153 34.5587 156.438 33.6487 160.32 33.6487C164.152 33.6487 167.446 34.5334 170.197 36.3028C172.949 38.0217 175.037 40.4231 176.461 43.507C177.936 46.5403 178.672 50.054 178.672 54.0478C178.672 55.0084 178.354 55.8173 177.714 56.4745C177.076 57.0812 176.266 57.3845 175.282 57.3845H147.275C147.815 60.8728 149.363 63.7292 151.917 65.9537C154.523 68.1275 157.692 69.2145 161.425 69.2145C162.95 69.2145 164.497 68.9365 166.069 68.3803C167.691 67.7737 168.993 67.0912 169.976 66.3328C170.713 65.7767 171.499 65.4987 172.334 65.4987C173.218 65.4481 173.981 65.7009 174.619 66.257C175.454 67.0153 175.896 67.8495 175.945 68.7595C175.995 69.6695 175.602 70.4534 174.766 71.1103C173.096 72.4753 171.007 73.5874 168.502 74.447C166.045 75.3067 163.686 75.7362 161.425 75.7362ZM160.32 40.1703C156.685 40.1703 153.76 41.2067 151.549 43.2795C149.338 45.3523 147.937 48.0317 147.349 51.3178H171.891C171.449 48.0823 170.247 45.4281 168.28 43.3553C166.316 41.232 163.661 40.1703 160.32 40.1703ZM186.177 75.4328C185.195 75.4328 184.408 75.1295 183.818 74.5228C183.278 73.8659 183.008 73.082 183.008 72.172C183.008 71.262 183.352 70.352 184.04 69.442L195.464 54.7303L183.302 39.9428C182.665 39.134 182.32 38.2745 182.271 37.3645C182.222 36.404 182.468 35.595 183.008 34.9378C183.549 34.2806 184.359 33.952 185.44 33.952C186.619 33.952 187.554 34.3817 188.241 35.2412L200.329 50.1045L211.163 35.2412C211.557 34.7356 211.974 34.407 212.416 34.2553C212.858 34.0531 213.35 33.952 213.89 33.952C214.971 33.952 215.782 34.3059 216.322 35.0137C216.863 35.6709 217.108 36.4798 217.06 37.4403C217.06 38.4009 216.715 39.3362 216.027 40.2462L204.898 55.1853L216.617 69.5937C217.354 70.5037 217.698 71.4137 217.65 72.3237C217.65 73.1834 217.33 73.9162 216.691 74.5228C216.101 75.1295 215.316 75.4328 214.332 75.4328C213.841 75.4328 213.374 75.357 212.932 75.2053C212.49 75.0537 212.073 74.7249 211.679 74.2195L199.96 59.8112L188.83 74.2195C188.094 75.0282 187.209 75.4328 186.177 75.4328Z" fill="#1E1E1E"/>
<path d="M42.5247 68.3079C43.5017 69.2524 45.0628 69.2289 46.0114 68.2573C46.9618 67.2862 46.9375 65.7317 45.9604 64.7883L41.893 60.8597L45.8392 56.811C46.7896 55.8398 46.7654 54.2853 45.7881 53.3419C44.8111 52.3976 43.2492 52.4209 42.3012 53.3934L38.3534 57.4402L34.2889 53.5139C33.3117 52.5706 31.7517 52.5933 30.803 53.5648C29.8526 54.5358 29.8768 56.0903 30.854 57.0337L34.9186 60.9598L30.9733 65.0046C30.0244 65.9769 30.0477 67.5311 31.025 68.4744C32.002 69.415 33.564 69.3922 34.5119 68.4233L38.4582 64.3751L42.5247 68.3079ZM37.6278 8.73072C17.2531 9.03331 0.923817 25.7753 1.22756 46.0489C1.53148 66.3251 18.3553 82.5727 38.73 82.2704C59.1049 81.9674 75.4317 65.226 75.1278 44.9515C74.824 24.678 58.0027 8.42813 37.6278 8.73072ZM38.6568 77.366C21.0021 77.6274 6.42194 63.5471 6.15866 45.9757C5.8955 28.4045 20.0472 13.8969 37.701 13.6351C55.3548 13.3733 69.9336 27.4534 70.1976 45.0256C70.4614 62.5971 56.3115 77.104 38.6568 77.366ZM49.6551 45.7292C51.0174 45.7087 52.104 44.595 52.0835 43.2394L51.9296 32.9814C51.9093 31.6284 50.7908 30.5446 49.4276 30.5648C48.0653 30.5853 46.9789 31.6989 46.9993 33.0545L47.1531 43.3127C47.1737 44.6683 48.2928 45.7496 49.6551 45.7292ZM27.1017 46.0634C28.4613 46.0432 29.5503 44.9301 29.5301 43.5736L29.3762 33.3155C29.3559 31.9626 28.2373 30.879 26.8742 30.899C25.5146 30.9192 24.4256 32.0323 24.4459 33.3888L24.5998 43.6461C24.6201 45.0025 25.7394 46.0837 27.1017 46.0634Z" fill="url(#paint0_linear_2962_26337)"/>
<path d="M227.456 66.8555C228.269 66.8555 228.993 67.0467 229.628 67.429C230.278 67.7968 230.78 68.3115 231.135 68.9733C231.504 69.6204 231.69 70.3484 231.69 71.1572C231.69 71.9661 231.504 72.7014 231.135 73.3632C230.78 74.025 230.278 74.5471 229.628 74.9294C228.993 75.2972 228.269 75.4809 227.456 75.4809C226.643 75.4809 225.911 75.2972 225.261 74.9294C224.625 74.5471 224.122 74.025 223.753 73.3632C223.398 72.7014 223.222 71.9661 223.222 71.1572C223.222 70.3484 223.398 69.6204 223.753 68.9733C224.122 68.3115 224.625 67.7968 225.261 67.429C225.911 67.0467 226.643 66.8555 227.456 66.8555ZM227.456 74.9074C228.165 74.9074 228.792 74.7457 229.34 74.4221C229.901 74.0986 230.329 73.6499 230.625 73.0764C230.936 72.5028 231.091 71.8631 231.091 71.1572C231.091 70.4512 230.936 69.8188 230.625 69.26C230.329 68.6864 229.901 68.2379 229.34 67.9143C228.792 67.5908 228.165 67.429 227.456 67.429C226.376 67.429 225.504 67.782 224.839 68.488C224.175 69.1791 223.842 70.0689 223.842 71.1572C223.842 71.8631 223.989 72.5028 224.285 73.0764C224.596 73.6499 225.024 74.0986 225.57 74.4221C226.118 74.7457 226.745 74.9074 227.456 74.9074ZM229.34 70.1645C229.34 70.5468 229.221 70.8631 228.985 71.113C228.748 71.3484 228.43 71.4881 228.032 71.5322L229.45 73.4956L228.631 73.5177L227.255 71.5322H226.569V73.5177H225.86V68.7968H227.81C228.282 68.7968 228.652 68.9144 228.919 69.1497C229.199 69.385 229.34 69.7233 229.34 70.1645ZM226.569 70.9366H227.744C228.349 70.9366 228.652 70.6792 228.652 70.1645C228.652 69.9144 228.571 69.7307 228.409 69.613C228.246 69.4806 228.024 69.4144 227.744 69.4144H226.569V70.9366Z" fill="#1E1E1E"/>
<defs>
<linearGradient id="paint0_linear_2962_26337" x1="4.95709" y1="20.9957" x2="66.4038" y2="71.9258" gradientUnits="userSpaceOnUse">
<stop stop-color="#F24E1E"/>
<stop offset="0.213542" stop-color="#FF7262"/>
<stop offset="0.5" stop-color="#A259FF"/>
<stop offset="0.760417" stop-color="#1ABCFE"/>
<stop offset="1" stop-color="#0ACF83"/>
</linearGradient>
</defs>
</svg>
